<svg id="Layer_1" data-name="Layer 1" xmlns="http://www.w3.org/2000/svg" viewBox="0 0 677.46 504.17"><defs><style>.cls-1{fill:#ffffff;}.cls-2{fill:#71A9F7;}</style></defs><title>StudentSpace</title><path class="cls-1" d="M400.06,139.71v26.72q-12.51-8.94-22.51-9a22.63,22.63,0,0,0-17.64,7.64q-6.84,7.23-6.84,19.34,0,10.66,4.87,18.3a81,81,0,0,0,8.23,10.53q5.71,6.45,14.8,15.53,16.72,17,22.77,29.35,6.06,12,6.06,29.36,0,23.57-13.29,38.83-13.31,14.86-34.1,14.87-17.51,0-29.87-9.61V304.51q14.61,10.65,26.58,10.66,11.19,0,17.51-7.44t6.32-20.2a40.51,40.51,0,0,0-4.87-19.88,81.69,81.69,0,0,0-7-9.67q-4.47-5.46-11.19-12.18-10.4-10.26-17.24-18.16a85.73,85.73,0,0,1-10.13-13.82q-6.33-11.58-6.32-29.22,0-23.83,12.37-37.78t33.56-14.08A59.24,59.24,0,0,1,400.06,139.71Z" transform="translate(-326.22 -115.1)"/><path class="cls-1" d="M432.31,164.33h25.14V202.5h13.69v20H457.45V338.73H432.31V222.5H418.49v-20h13.82Z" transform="translate(-326.22 -115.1)"/><path class="cls-1" d="M489.17,202.5h25.14v91.08q.26,12.65,3.75,18t11.65,5.4q8.55,0,12-4.74,3.42-5,3.42-17.37V202.5h25.14V284q0,28.57-4.21,38.17-8.82,18.69-36.59,18.69-21.86,0-31.07-11.05t-9.21-37.25Z" transform="translate(-326.22 -115.1)"/><path class="cls-1" d="M676.47,115.1V338.73H651.33V321.22q-5.4,11.19-10.79,15.4t-14.35,4.21q-16.85,0-24.75-17.3t-7.89-54.43a210.54,210.54,0,0,1,2-30.93q2-13,6-21.46t10.33-12.44a27.48,27.48,0,0,1,15-4q8.29,0,13.69,4a27.41,27.41,0,0,1,5.39,5.26,51.94,51.94,0,0,1,5.4,8.43V115.1ZM619.61,270q0,26.85,3.55,37.51t12.9,10.67q8.43,0,12.24-11.06,3.83-11.85,3.82-36.46t-3.82-36.59Q644.49,223,636.06,223q-9,0-12.77,10.53Q619.62,243.31,619.61,270Z" transform="translate(-326.22 -115.1)"/><path class="cls-1" d="M757.68,292.79h23.43q-2.76,48-39.49,48-10.92,0-18.75-4.08a32.82,32.82,0,0,1-13-12.63q-5.13-8.55-7.57-21.72a175,175,0,0,1-2.43-31.33q0-36.06,10.07-53.44t31.13-17.37q40.93,0,40.93,72.13v3.16H724.51q0,43.69,17.38,43.7Q757.69,319.25,757.68,292.79Zm-1.31-35.41q-1.59-21.45-4.87-28.16-3.43-7.5-11.06-7.51t-11.06,7.51q-3.28,6.71-4.87,28.16Z" transform="translate(-326.22 -115.1)"/><path class="cls-1" d="M804.41,202.5h25.14v15.66q10.79-17.9,27.9-17.9,16.59,0,23.7,13,3.95,7.38,4,28.56v96.88H860l-.14-91.09q0-13.81-3.29-19.61t-11.32-5.79a16,16,0,0,0-7.3,1.51,11.47,11.47,0,0,0-4.81,4.87,27.15,27.15,0,0,0-2.69,8.76,85.6,85.6,0,0,0-.86,13.29v88.06H804.41Z" transform="translate(-326.22 -115.1)"/><path class="cls-1" d="M916.55,164.33h25.14V202.5h13.69v20H941.69V338.73H916.55V222.5H902.73v-20h13.82Z" transform="translate(-326.22 -115.1)"/><path class="cls-2" d="M400.06,364.45v26.72q-12.51-9-22.51-9a22.63,22.63,0,0,0-17.64,7.64q-6.84,7.25-6.84,19.35,0,10.67,4.87,18.29A80.33,80.33,0,0,0,366.17,438q5.71,6.45,14.8,15.54,16.72,17,22.77,29.35,6.06,12,6.06,29.35,0,23.57-13.29,38.83Q383.21,566,362.41,566q-17.51,0-29.87-9.61V529.24q14.61,10.66,26.58,10.66,11.19,0,17.51-7.44t6.32-20.2a40.51,40.51,0,0,0-4.87-19.88,82.51,82.51,0,0,0-7-9.67q-4.47-5.46-11.19-12.17-10.4-10.28-17.24-18.17a85.3,85.3,0,0,1-10.13-13.82q-6.33-11.58-6.32-29.22,0-23.82,12.37-37.78t33.56-14.08A59.25,59.25,0,0,1,400.06,364.45Z" transform="translate(-326.22 -115.1)"/><path class="cls-2" d="M431.39,619.27v-192h25.14v17.64q5.25-11.19,10.79-15.53T481.8,425q16.84,0,24.68,17.44T514.31,497q0,36.33-8,52.26-7.89,16.32-25.4,16.32-8.43,0-13.82-3.82a24.87,24.87,0,0,1-5.27-5.26,60.86,60.86,0,0,1-5.26-8.3v71.08Zm56.86-123.2q0-27.76-3.69-37.64-3.56-10.67-12.77-10.67-8.69,0-12.37,11.06-3.69,10.28-3.68,36.59T459.42,532q3.82,10.93,12.37,10.93,9,0,12.77-10.53Q488.25,522.67,488.25,496.07Z" transform="translate(-326.22 -115.1)"/><path class="cls-2" d="M615.53,427.23V563.46H590.39V546q-5.4,11.19-10.79,15.4t-14.22,4.21q-17,0-24.88-17.38t-7.9-54.49q0-35.4,7.9-52.06T565.38,425q15.52,0,25,17.64v-15.4Zm-56.86,67.52q0,26.87,3.55,37.52t12.9,10.66q8.42,0,12.24-11.06,3.81-11.85,3.82-36.46t-3.82-36.59q-3.83-11.06-12.24-11.06-9,0-12.77,10.53Q558.66,468,558.67,494.75Z" transform="translate(-326.22 -115.1)"/><path class="cls-2" d="M699.77,429.86v25.67q-5.26-6.45-12.64-6.45-20.79,0-20.79,45,0,47.77,20.66,47.78,5.79,0,12.77-5.14V560.3a43.12,43.12,0,0,1-20.27,5.27q-40.54,0-40.54-69,0-36.74,10-54.17T680,425A43.3,43.3,0,0,1,699.77,429.86Z" transform="translate(-326.22 -115.1)"/><path class="cls-2" d="M773.74,517.53h23.43q-2.76,48-39.49,48-10.92,0-18.75-4.08a32.78,32.78,0,0,1-13-12.64q-5.13-8.55-7.57-21.72A174.91,174.91,0,0,1,716,495.81q0-36.07,10.07-53.44T757.16,425q40.94,0,40.93,72.13v3.16H740.57Q740.57,544,758,544,773.75,544,773.74,517.53Zm-1.32-35.41q-1.57-21.45-4.87-28.17-3.42-7.5-11-7.5T745.44,454q-3.29,6.72-4.87,28.17Z" transform="translate(-326.22 -115.1)"/><path class="cls-2" d="M999.05,443.91a15.81,15.81,0,0,0-22.34,0l-15.84,15.86V418a15.7,15.7,0,0,0-4.63-11.17L941.35,392a15.68,15.68,0,0,0-11.17-4.63H839.76A15.79,15.79,0,0,0,824,403.15V551.28a15.79,15.79,0,0,0,15.79,15.79H945.07a15.8,15.8,0,0,0,15.8-15.79V504.46l38.18-38.21A15.79,15.79,0,0,0,999.05,443.91Zm-69.78-46a5.76,5.76,0,0,1,4.63,1.54l14.89,14.9a5.75,5.75,0,0,1,1.55,4.62H929.27Zm21.07,153.4a5.27,5.27,0,0,1-5.27,5.26H839.76a5.25,5.25,0,0,1-5.26-5.26V403.15a5.26,5.26,0,0,1,5.26-5.27h79v26.33a5.26,5.26,0,0,0,5.27,5.26h26.33V470.3L934.8,485.85l-7.44,7.45a5.1,5.1,0,0,0-1.27,2.05l-7.45,22.34a5.26,5.26,0,0,0,6.66,6.66l22.34-7.44a5.44,5.44,0,0,0,2.06-1.27l.64-.64v36.28Zm-12-54.26,7.45,7.45L943,507.31,931.78,511l3.73-11.17Zm14.89,0-7.44-7.45,25.31-25.33,7.44,7.45Zm38.18-38.22L986,464.24l-7.45-7.45,5.43-5.43a5.26,5.26,0,1,1,7.44,7.44Z" transform="translate(-326.22 -115.1)"/><path class="cls-2" d="M923.83,440H850.12a5.27,5.27,0,1,0,0,10.53h73.71a5.27,5.27,0,1,0,0-10.53Z" transform="translate(-326.22 -115.1)"/><path class="cls-2" d="M902.77,461.06H850.12a5.27,5.27,0,1,0,0,10.54h52.65a5.27,5.27,0,0,0,0-10.54Z" transform="translate(-326.22 -115.1)"/><path class="cls-2" d="M902.77,482.13H850.12a5.27,5.27,0,1,0,0,10.53h52.65a5.27,5.27,0,1,0,0-10.53Z" transform="translate(-326.22 -115.1)"/><path class="cls-2" d="M902.77,503.19H850.12a5.27,5.27,0,1,0,0,10.53h52.65a5.27,5.27,0,1,0,0-10.53Z" transform="translate(-326.22 -115.1)"/><path class="cls-2" d="M923.83,535.48H892.24a5.27,5.27,0,0,0,0,10.53h31.59a5.27,5.27,0,1,0,0-10.53Z" transform="translate(-326.22 -115.1)"/></svg>
